<?xml version="1.0" encoding="UTF-8" standalone="no"?>
<!-- Created with Inkscape (http://www.inkscape.org/) -->

<svg
   width="129.10324mm"
   height="74.893677mm"
   viewBox="0 0 129.10324 74.893675"
   version="1.1"
   id="svg8"
   inkscape:version="1.1.1 (3bf5ae0d25, 2021-09-20)"
   sodipodi:docname="cbs_logo.svg"
   inkscape:export-filename="D:\Pictures\Logos\cbs\cbs_logo_150dpi.png"
   inkscape:export-xdpi="300"
   inkscape:export-ydpi="300"
   xmlns:inkscape="http://www.inkscape.org/namespaces/inkscape"
   xmlns:sodipodi="http://sodipodi.sourceforge.net/DTD/sodipodi-0.dtd"
   xmlns="http://www.w3.org/2000/svg"
   xmlns:svg="http://www.w3.org/2000/svg"
   xmlns:rdf="http://www.w3.org/1999/02/22-rdf-syntax-ns#"
   xmlns:cc="http://creativecommons.org/ns#"
   xmlns:dc="http://purl.org/dc/elements/1.1/">
  <title
     id="title6644">CAN Bus Security Logo</title>
  <defs
     id="defs2" />
  <sodipodi:namedview
     id="base"
     pagecolor="#ffffff"
     bordercolor="#666666"
     borderopacity="1.0"
     inkscape:pageopacity="1"
     inkscape:pageshadow="2"
     inkscape:zoom="0.98994949"
     inkscape:cx="45.961941"
     inkscape:cy="164.65487"
     inkscape:document-units="mm"
     inkscape:current-layer="layer1"
     showgrid="false"
     inkscape:window-width="1278"
     inkscape:window-height="1008"
     inkscape:window-x="1273"
     inkscape:window-y="0"
     inkscape:window-maximized="0"
     inkscape:measure-start="328.633,612.437"
     inkscape:measure-end="328.805,588.161"
     fit-margin-top="10"
     fit-margin-left="10"
     fit-margin-right="10"
     fit-margin-bottom="10"
     inkscape:pagecheckerboard="true"
     inkscape:snap-to-guides="false"
     inkscape:snap-grids="true"
     inkscape:snap-others="true"
     inkscape:object-nodes="false"
     inkscape:snap-nodes="true"
     inkscape:snap-global="true" />
  <metadata
     id="metadata5">
    <rdf:RDF>
      <cc:Work
         rdf:about="">
        <dc:format>image/svg+xml</dc:format>
        <dc:type
           rdf:resource="http://purl.org/dc/dcmitype/StillImage" />
        <dc:title>CAN Bus Security Logo</dc:title>
        <dc:date>2020-12-28</dc:date>
        <dc:creator>
          <cc:Agent>
            <dc:title>Matjaž Guštin</dc:title>
          </cc:Agent>
        </dc:creator>
        <dc:rights>
          <cc:Agent>
            <dc:title>Copyright (c) 2022. This work is licensed under a CC BY 4.0 license.</dc:title>
          </cc:Agent>
        </dc:rights>
        <dc:subject>
          <rdf:Bag>
            <rdf:li>CBS</rdf:li>
            <rdf:li>CAN</rdf:li>
            <rdf:li>bus</rdf:li>
            <rdf:li>security</rdf:li>
            <rdf:li>protocol</rdf:li>
          </rdf:Bag>
        </dc:subject>
        <cc:license
           rdf:resource="http://creativecommons.org/licenses/by-nc/4.0/" />
      </cc:Work>
      <cc:License
         rdf:about="http://creativecommons.org/licenses/by-nc/4.0/">
        <cc:permits
           rdf:resource="http://creativecommons.org/ns#Reproduction" />
        <cc:permits
           rdf:resource="http://creativecommons.org/ns#Distribution" />
        <cc:requires
           rdf:resource="http://creativecommons.org/ns#Notice" />
        <cc:requires
           rdf:resource="http://creativecommons.org/ns#Attribution" />
        <cc:prohibits
           rdf:resource="http://creativecommons.org/ns#CommercialUse" />
        <cc:permits
           rdf:resource="http://creativecommons.org/ns#DerivativeWorks" />
      </cc:License>
    </rdf:RDF>
  </metadata>
  <g
     inkscape:label="Layer 1"
     inkscape:groupmode="layer"
     id="layer1"
     transform="translate(-40.977165,-77.924928)">
    <flowRoot
       xml:space="preserve"
       id="flowRoot4485"
       style="font-style:normal;font-weight:normal;font-size:40px;line-height:1.25;font-family:sans-serif;letter-spacing:0px;word-spacing:0px;fill:#000000;fill-opacity:1;stroke:none"
       transform="scale(0.26458333)"><flowRegion
         id="flowRegion4487"><rect
           id="rect4489"
           width="354.56354"
           height="168.69548"
           x="214.15234"
           y="230.55499" /></flowRegion><flowPara
         id="flowPara4491" /></flowRoot>
    <g
       id="g6642"
       style="stroke-width:0.8;stroke-miterlimit:4;stroke-dasharray:none">
      <g
         id="g4587">
        <path
           inkscape:connector-curvature="0"
           id="path4497"
           d="M 51.484286,135.03467 H 149.80751"
           style="fill:#000000;stroke:#000000;stroke-width:0.7;stroke-linecap:round;stroke-linejoin:round;stroke-miterlimit:4;stroke-dasharray:none;stroke-opacity:1" />
        <path
           inkscape:connector-curvature="0"
           id="path4497-96"
           d="M 61.963349,141.46563 H 159.57329"
           style="fill:#000000;stroke:#000000;stroke-width:0.7;stroke-linecap:round;stroke-linejoin:round;stroke-miterlimit:4;stroke-dasharray:none;stroke-opacity:1" />
        <path
           inkscape:connector-curvature="0"
           id="path4497-9"
           d="m 70.975479,121.20281 v 13.75661"
           style="fill:#000000;stroke:#000000;stroke-width:0.7;stroke-linecap:round;stroke-linejoin:round;stroke-miterlimit:4;stroke-dasharray:none;stroke-opacity:1" />
        <circle
           style="fill:#000000;stroke:#000000;stroke-width:0.7;stroke-linejoin:round;stroke-miterlimit:4;stroke-dasharray:none;stroke-opacity:1"
           id="path4544"
           cx="70.94519"
           cy="135.01358"
           r="0.87406993" />
        <path
           inkscape:connector-curvature="0"
           id="path4497-9-9"
           d="m 77.276628,121.28611 v 20.10426"
           style="fill:#000000;stroke:#000000;stroke-width:0.7;stroke-linecap:round;stroke-linejoin:round;stroke-miterlimit:4;stroke-dasharray:none;stroke-opacity:1" />
        <circle
           style="fill:#000000;stroke:#000000;stroke-width:0.7;stroke-linejoin:round;stroke-miterlimit:4;stroke-dasharray:none;stroke-opacity:1"
           id="path4544-3"
           cx="77.246338"
           cy="141.44453"
           r="0.87406993" />
        <path
           id="path4575"
           d="M 83.311477,100.52137 H 64.84174 c -1.579021,0 -2.859091,1.28005 -2.859091,2.85909 v 13.63216 c 0,1.57904 1.28005,2.85909 2.859091,2.85909 h 18.469737 c 1.579021,0 2.859091,-1.28005 2.859091,-2.85909 v -13.63218 c 0,-1.57902 -1.28007,-2.85907 -2.859091,-2.85907 z m -7.998237,9.92384 c 0.02291,0.0954 0.03539,0.19484 0.03539,0.29707 v 2.44559 c 0,0.70414 -0.57611,1.28023 -1.280227,1.28023 -0.704137,0 -1.280247,-0.57611 -1.280247,-1.28023 v -2.44559 c 0,-0.10525 0.01313,-0.20756 0.03738,-0.3056 -0.705886,-0.42497 -1.178101,-1.19857 -1.178101,-2.08254 0,-1.3416 1.087588,-2.42916 2.429166,-2.42916 1.341597,0 2.429165,1.08756 2.429165,2.42916 2e-5,0.88996 -0.47866,1.66798 -1.192524,2.09107 z"
           inkscape:connector-curvature="0"
           style="fill:none;fill-opacity:1;stroke:#000000;stroke-width:0.7;stroke-linecap:butt;stroke-linejoin:round;stroke-miterlimit:4;stroke-dasharray:none;stroke-dashoffset:508.87841797;stroke-opacity:1" />
        <path
           id="path4577"
           d="m 76.935258,88.910656 c -0.913401,-0.332279 -1.847612,-0.482119 -2.794361,-0.480645 -0.946749,-0.0015 -2.009557,0.148366 -2.922958,0.480645 -4.255849,1.548248 -5.80172,5.368866 -5.588742,10.426558 h 3.532966 c -0.198377,-3.485273 0.702093,-5.833751 2.903012,-6.836898 1.275098,-0.581161 2.747729,-0.581161 4.022828,0 2.200918,1.003127 3.101389,3.351606 2.903011,6.836898 h 3.532966 c 0.212998,-5.057692 -1.332853,-8.87831 -5.588722,-10.426558 z"
           inkscape:connector-curvature="0"
           style="fill:none;fill-opacity:1;stroke:#000000;stroke-width:0.7;stroke-linecap:butt;stroke-linejoin:round;stroke-miterlimit:4;stroke-dasharray:none;stroke-dashoffset:508.87841797;stroke-opacity:1" />
        <path
           style="fill:#000000;stroke:#000000;stroke-width:0.7;stroke-linecap:round;stroke-linejoin:round;stroke-miterlimit:4;stroke-dasharray:none;stroke-opacity:1"
           d="m 108.69068,121.20281 v 13.75661"
           id="path4712"
           inkscape:connector-curvature="0" />
        <circle
           r="0.87406993"
           cy="135.01358"
           cx="108.66039"
           id="circle4714"
           style="fill:#000000;stroke:#000000;stroke-width:0.7;stroke-linejoin:round;stroke-miterlimit:4;stroke-dasharray:none;stroke-opacity:1" />
        <path
           style="fill:#000000;stroke:#000000;stroke-width:0.7;stroke-linecap:round;stroke-linejoin:round;stroke-miterlimit:4;stroke-dasharray:none;stroke-opacity:1"
           d="m 114.99182,121.28611 v 20.10426"
           id="path4716"
           inkscape:connector-curvature="0" />
        <circle
           r="0.87406993"
           cy="141.44453"
           cx="114.96153"
           id="circle4718"
           style="fill:#000000;stroke:#000000;stroke-width:0.7;stroke-linejoin:round;stroke-miterlimit:4;stroke-dasharray:none;stroke-opacity:1" />
        <path
           style="fill:none;stroke:#000000;stroke-width:0.7;stroke-linecap:butt;stroke-linejoin:round;stroke-miterlimit:4;stroke-dasharray:none;stroke-opacity:1"
           inkscape:connector-curvature="0"
           d="m 121.02667,100.52137 h -18.46973 c -1.57902,0 -2.859094,1.28005 -2.859094,2.85909 v 13.63216 c 0,1.57904 1.280054,2.85909 2.859094,2.85909 h 18.46973 c 1.57903,0 2.8591,-1.28005 2.8591,-2.85909 v -13.63218 c 0,-1.57902 -1.28007,-2.85907 -2.8591,-2.85907 z m -7.99823,9.92384 c 0.0229,0.0954 0.0354,0.19484 0.0354,0.29707 v 2.44559 c 0,0.70414 -0.57611,1.28023 -1.28023,1.28023 -0.70414,0 -1.28025,-0.57611 -1.28025,-1.28023 v -2.44559 c 0,-0.10525 0.0131,-0.20756 0.0374,-0.3056 -0.70589,-0.42497 -1.1781,-1.19857 -1.1781,-2.08254 0,-1.3416 1.08759,-2.42916 2.42917,-2.42916 1.34159,0 2.42916,1.08756 2.42916,2.42916 2e-5,0.88996 -0.47866,1.66798 -1.19252,2.09107 z"
           id="path4722" />
        <path
           style="fill:none;stroke:#000000;stroke-width:0.7;stroke-linecap:butt;stroke-linejoin:round;stroke-miterlimit:4;stroke-dasharray:none;stroke-opacity:1"
           inkscape:connector-curvature="0"
           d="m 114.65046,88.910656 c -0.91341,-0.332279 -1.84762,-0.482119 -2.79437,-0.480645 -0.94674,-0.0015 -2.00955,0.148366 -2.92295,0.480645 -4.25585,1.548248 -5.80172,5.368866 -5.58875,10.426558 h 3.53297 c -0.19838,-3.485273 0.70209,-5.833751 2.90301,-6.836898 1.2751,-0.581161 2.74773,-0.581161 4.02283,0 2.20092,1.003127 3.10139,3.351606 2.90301,6.836898 h 3.53297 c 0.213,-5.057692 -1.33286,-8.87831 -5.58872,-10.426558 z"
           id="path4724" />
        <path
           inkscape:connector-curvature="0"
           id="path4730"
           d="m 134.60439,121.19774 v 13.75661"
           style="fill:#000000;stroke:#000000;stroke-width:0.7;stroke-linecap:round;stroke-linejoin:round;stroke-miterlimit:4;stroke-dasharray:none;stroke-opacity:1" />
        <circle
           style="fill:#000000;stroke:#000000;stroke-width:0.7;stroke-linejoin:round;stroke-miterlimit:4;stroke-dasharray:none;stroke-opacity:1"
           id="circle4732"
           cx="134.5741"
           cy="135.00851"
           r="0.87406993" />
        <path
           inkscape:connector-curvature="0"
           id="path4734"
           d="M 140.90554,121.28104 V 141.3853"
           style="fill:#000000;stroke:#000000;stroke-width:0.7;stroke-linecap:round;stroke-linejoin:round;stroke-miterlimit:4;stroke-dasharray:none;stroke-opacity:1" />
        <circle
           style="fill:#000000;stroke:#000000;stroke-width:0.7;stroke-linejoin:round;stroke-miterlimit:4;stroke-dasharray:none;stroke-opacity:1"
           id="circle4736"
           cx="140.87524"
           cy="141.43947"
           r="0.87406993" />
        <path
           id="path4740"
           d="m 146.94038,100.5163 h -18.46974 c -1.57902,0 -2.85909,1.28005 -2.85909,2.85909 v 13.63215 c 0,1.57904 1.28005,2.8591 2.85909,2.8591 h 18.46974 c 1.57902,0 2.85909,-1.28006 2.85909,-2.8591 v -13.63217 c 0,-1.57902 -1.28007,-2.85907 -2.85909,-2.85907 z m -7.99824,9.92384 c 0.0229,0.0954 0.0354,0.19484 0.0354,0.29706 v 2.4456 c 0,0.70414 -0.57611,1.28023 -1.28022,1.28023 -0.70414,0 -1.28025,-0.57611 -1.28025,-1.28023 v -2.4456 c 0,-0.10525 0.0131,-0.20755 0.0374,-0.30559 -0.70589,-0.42497 -1.1781,-1.19858 -1.1781,-2.08254 0,-1.3416 1.08758,-2.42917 2.42916,-2.42917 1.3416,0 2.42917,1.08757 2.42917,2.42917 2e-5,0.88996 -0.47866,1.66798 -1.19253,2.09107 z"
           inkscape:connector-curvature="0"
           style="fill:none;stroke:#000000;stroke-width:0.7;stroke-linejoin:round;stroke-miterlimit:4;stroke-dasharray:none;stroke-opacity:1" />
        <path
           id="path4742"
           d="m 140.56416,88.905584 c -0.9134,-0.332279 -1.84761,-0.482119 -2.79436,-0.480645 -0.94675,-0.0015 -2.00956,0.148366 -2.92296,0.480645 -4.25585,1.548248 -5.80172,5.368866 -5.58874,10.426558 h 3.53297 c -0.19838,-3.485273 0.70209,-5.833751 2.90301,-6.836898 1.2751,-0.581161 2.74773,-0.581161 4.02283,0 2.20091,1.003127 3.10138,3.351606 2.90301,6.836898 h 3.53296 c 0.213,-5.057692 -1.33285,-8.87831 -5.58872,-10.426558 z"
           inkscape:connector-curvature="0"
           style="fill:none;stroke:#000000;stroke-width:0.7;stroke-linejoin:round;stroke-miterlimit:4;stroke-dasharray:none;stroke-opacity:1" />
      </g>
    </g>
  </g>
</svg>
