<?xml version="1.0" standalone="no"?>
<!DOCTYPE svg PUBLIC "-//W3C//DTD SVG 20010904//EN"
 "http://www.w3.org/TR/2001/REC-SVG-20010904/DTD/svg10.dtd">
<svg version="1.0" xmlns="http://www.w3.org/2000/svg"
 width="700.000000pt" height="700.000000pt" viewBox="0 0 700.000000 700.000000"
 preserveAspectRatio="xMidYMid meet">
<metadata>
Created by potrace 1.11, written by Peter Selinger 2001-2013
</metadata>
<g transform="translate(0.000000,700.000000) scale(0.100000,-0.100000)"
fill="#000000" stroke="none">
<path d="M3725 6989 c-33 -4 -73 -10 -90 -14 -16 -3 -43 -8 -60 -11 -46 -9
-202 -71 -264 -106 -229 -128 -436 -338 -587 -594 -174 -296 -297 -696 -330
-1069 -3 -38 -7 -88 -10 -110 -24 -242 -23 -911 2 -1245 6 -81 13 -194 19
-285 9 -134 5 -128 83 -121 37 4 81 9 97 11 45 7 89 12 201 26 l101 12 -2 31
c-2 17 -6 78 -10 136 -3 58 -8 119 -10 135 -26 204 -40 956 -22 1200 16 218
19 253 34 340 80 473 287 868 562 1076 73 54 183 111 241 124 128 29 244 36
345 21 189 -27 393 -114 521 -222 270 -228 426 -551 419 -865 -3 -118 -18
-195 -56 -301 -124 -344 -403 -631 -788 -810 -219 -101 -397 -167 -696 -258
-16 -5 -50 -14 -75 -20 -25 -7 -52 -14 -60 -16 -8 -2 -85 -20 -170 -39 -85
-19 -165 -37 -177 -40 -21 -5 -22 -9 -17 -93 4 -48 7 -98 9 -112 1 -14 3 -39
4 -57 1 -21 5 -31 14 -28 6 2 32 7 57 10 25 3 57 8 72 10 84 12 331 60 388 75
19 5 46 11 60 14 124 23 474 131 588 182 29 13 56 24 61 24 4 0 43 17 87 38
43 22 97 47 119 58 56 26 250 139 294 171 273 201 508 512 605 803 21 65 39
128 50 185 28 133 29 379 2 510 -67 325 -231 619 -469 840 -211 197 -464 321
-767 377 -71 13 -297 17 -375 7z"/>
<path d="M5900 4016 c0 -3 77 -107 170 -232 94 -125 169 -228 168 -230 -2 -1
-118 -5 -258 -8 -418 -10 -792 -24 -1135 -41 -55 -3 -163 -7 -240 -11 -211 -8
-458 -20 -625 -30 -101 -6 -223 -12 -350 -19 -128 -6 -243 -13 -330 -20 -36
-3 -99 -7 -140 -10 -106 -8 -189 -15 -230 -20 -19 -2 -64 -7 -100 -10 -124
-11 -192 -19 -425 -49 -11 -2 -40 -6 -65 -10 -25 -4 -58 -10 -75 -12 -70 -11
-91 -15 -115 -19 -54 -11 -76 -15 -105 -21 -16 -3 -59 -11 -95 -19 -36 -8 -76
-17 -90 -19 -215 -41 -680 -192 -899 -293 -527 -242 -880 -643 -945 -1073 -12
-79 -13 -321 -2 -395 6 -39 15 -83 22 -115 3 -14 9 -43 14 -65 20 -96 98 -282
171 -407 315 -543 933 -902 1519 -882 136 4 161 8 257 34 342 97 626 332 791
657 92 181 173 421 197 583 4 24 8 47 10 50 3 5 12 71 21 165 3 33 7 76 9 95
5 45 5 448 0 519 -2 30 -6 88 -10 130 -3 42 -8 96 -10 121 -14 160 -17 194
-21 213 -2 12 -7 51 -10 87 -9 93 -10 99 -18 160 -10 79 -14 110 -15 150 -2
53 -10 60 -61 50 -25 -4 -63 -11 -85 -14 -41 -7 -95 -16 -130 -23 -11 -2 -36
-6 -55 -9 -51 -8 -71 -11 -111 -19 l-36 -7 8 -46 c4 -26 10 -76 14 -112 4 -36
9 -78 11 -95 2 -16 6 -55 9 -85 3 -30 8 -66 10 -80 2 -14 6 -47 9 -75 3 -27 8
-79 12 -115 4 -36 8 -78 10 -95 18 -177 23 -516 11 -675 -10 -125 -14 -157
-38 -270 -76 -362 -268 -647 -513 -764 -108 -52 -184 -68 -321 -69 -110 -1
-146 2 -245 19 -61 10 -236 72 -312 110 -280 141 -530 408 -643 688 -30 75
-74 242 -82 311 -23 193 30 403 147 575 197 291 713 572 1377 749 128 34 469
110 558 124 17 3 123 21 237 41 114 19 231 38 260 41 29 3 69 8 88 10 19 3 53
7 75 10 60 6 136 15 175 20 19 2 60 6 90 10 30 3 66 7 80 10 14 2 53 7 87 10
34 3 70 7 80 9 10 2 50 7 88 11 39 3 84 8 100 10 98 12 126 15 180 20 57 6 78
8 170 19 62 8 136 16 185 21 86 8 165 17 180 20 8 2 53 6 100 10 106 9 123 11
185 19 28 3 100 11 160 16 61 6 124 13 140 15 17 2 55 7 85 9 98 10 174 17
210 21 19 3 64 7 100 10 36 3 79 7 95 10 17 2 55 6 85 10 30 3 75 7 100 10 25
3 72 7 105 10 33 3 76 8 95 10 19 3 64 7 100 10 36 3 78 8 94 11 22 5 27 3 20
-7 -8 -14 -109 -143 -129 -165 -5 -6 -44 -53 -85 -104 -41 -51 -85 -104 -97
-119 -39 -45 -25 -43 48 10 175 124 416 262 559 319 59 24 212 77 220 77 3 0
28 5 55 12 55 13 92 18 144 20 46 1 34 11 -21 17 -49 6 -141 20 -178 29 -14 3
-36 8 -50 10 -43 7 -152 42 -233 74 -196 79 -370 187 -513 320 -30 28 -54 49
-54 47z"/>
<path d="M16 3883 c-3 -4 -6 -32 -6 -64 0 -65 -7 -60 105 -73 22 -3 57 -7 78
-11 20 -3 52 -7 70 -9 55 -8 279 -35 337 -41 30 -3 76 -7 103 -10 154 -16 232
-23 347 -31 47 -3 108 -7 135 -9 212 -15 694 -23 1005 -16 104 3 147 12 136
30 -2 3 -7 55 -11 116 -6 108 -10 129 -23 121 -7 -4 -68 -10 -222 -22 -36 -2
-87 -7 -115 -9 -310 -25 -1185 -26 -1505 -1 -25 2 -97 7 -160 10 -113 7 -204
14 -247 21 -12 2 -24 1 -27 -2z"/>
</g>
</svg>
