<?xml version="1.0" standalone="no"?>
<!DOCTYPE svg PUBLIC "-//W3C//DTD SVG 20010904//EN"
 "http://www.w3.org/TR/2001/REC-SVG-20010904/DTD/svg10.dtd">
<svg version="1.0" xmlns="http://www.w3.org/2000/svg"
 width="343.000000pt" height="343.000000pt" viewBox="0 0 343.000000 343.000000"
 preserveAspectRatio="xMidYMid meet">
<metadata>
Created by potrace 1.11, written by Peter Selinger 2001-2013
</metadata>
<g transform="translate(0.000000,343.000000) scale(0.100000,-0.100000)"
fill="#000000" stroke="none">
<path d="M1753 3411 c-81 -22 -115 -38 -194 -92 -154 -104 -288 -318 -348
-556 -42 -168 -50 -267 -46 -623 3 -179 6 -338 9 -355 2 -16 4 -47 5 -69 l1
-38 63 7 c34 3 84 9 111 11 57 6 67 10 61 27 -21 62 -28 736 -9 860 43 280
175 507 341 589 59 29 77 33 156 34 184 3 339 -82 444 -244 185 -288 56 -639
-302 -819 -137 -70 -354 -144 -520 -179 -96 -21 -90 -16 -89 -62 2 -104 2
-101 32 -96 316 54 458 94 651 185 203 96 343 226 430 399 53 105 72 178 75
303 6 194 -77 385 -236 539 -163 158 -432 234 -635 179z"/>
<path d="M2910 1946 c0 -5 32 -51 72 -102 39 -52 69 -97 66 -99 -3 -3 -76 -7
-164 -10 -227 -6 -467 -15 -554 -20 -41 -2 -136 -7 -210 -10 -74 -3 -169 -8
-210 -10 -41 -3 -118 -7 -170 -10 -120 -6 -244 -15 -295 -21 -22 -2 -62 -7
-90 -9 -150 -17 -285 -37 -445 -69 -275 -55 -565 -189 -723 -335 -57 -53 -132
-170 -158 -248 -29 -87 -35 -230 -13 -323 9 -36 17 -72 19 -80 19 -86 103
-232 182 -316 133 -141 287 -230 468 -270 59 -13 231 -13 288 0 174 40 334
188 430 397 26 57 65 215 75 304 9 86 8 332 -2 430 -4 33 -9 83 -12 110 -3 28
-7 61 -9 75 -2 14 -7 52 -10 85 -3 33 -8 61 -9 63 -3 3 -101 -11 -171 -25 -16
-3 -36 -6 -43 -6 -10 0 -12 -14 -7 -56 6 -61 23 -205 31 -261 2 -19 6 -102 8
-185 8 -295 -44 -480 -168 -609 -78 -79 -166 -114 -281 -111 -79 3 -115 11
-195 42 -155 62 -283 178 -350 318 -120 253 -73 446 151 612 139 104 427 217
679 267 132 26 181 35 220 41 25 3 52 8 60 10 17 4 75 13 135 21 115 14 193
23 250 29 28 3 68 7 90 10 22 2 67 7 100 10 33 3 96 10 140 15 44 5 107 12
140 15 33 3 71 8 85 10 14 3 57 7 95 10 39 4 81 8 95 10 14 2 48 6 75 9 47 6
81 9 215 22 30 2 73 7 95 9 22 2 72 7 110 11 l70 6 -25 -28 c-14 -16 -27 -31
-30 -34 -3 -3 -23 -27 -45 -55 -21 -27 -42 -52 -45 -55 -47 -44 -28 -41 46 8
166 110 251 149 383 175 l64 13 -89 18 c-168 32 -278 85 -386 185 -16 13 -28
21 -28 17z"/>
<path d="M4 1871 c0 -20 6 -31 16 -32 8 0 24 -2 35 -4 97 -19 406 -50 590 -60
75 -4 441 -6 482 -3 9 1 12 16 9 47 -2 25 -4 54 -5 64 -1 19 -27 19 -226 1
-76 -7 -545 -7 -645 0 -41 3 -116 8 -166 12 l-92 6 2 -31z"/>
</g>
</svg>
